<?xml version="1.0" standalone="no"?>
<!DOCTYPE svg PUBLIC "-//W3C//DTD SVG 20010904//EN"
 "http://www.w3.org/TR/2001/REC-SVG-20010904/DTD/svg10.dtd">
<svg version="1.0" xmlns="http://www.w3.org/2000/svg"
 width="2000.000000pt" height="555.000000pt" viewBox="0 0 2000.000000 555.000000"
 preserveAspectRatio="xMidYMid meet">

<g transform="translate(0.000000,555.000000) scale(0.100000,-0.100000)"
fill="#f44242" stroke="none">
<path d="M2410 5529 c-872 -133 -1610 -641 -2038 -1404 -169 -300 -294 -694
-333 -1050 -16 -141 -16 -459 0 -600 38 -341 158 -730 314 -1015 378 -693
1015 -1190 1769 -1380 237 -60 405 -80 678 -80 274 0 423 16 655 72 385 91
781 286 1095 539 492 394 843 967 974 1586 59 279 75 636 42 906 -136 1091
-874 1985 -1916 2322 -145 47 -252 71 -440 101 -137 21 -185 24 -415 23 -200
-1 -289 -6 -385 -20z m600 -189 c339 -30 626 -109 925 -255 538 -263 983 -724
1221 -1265 295 -670 295 -1420 0 -2090 -119 -271 -288 -519 -506 -744 -407
-420 -912 -676 -1505 -762 -165 -24 -514 -24 -680 0 -573 83 -1063 324 -1464
719 -214 212 -372 429 -501 692 -93 190 -140 314 -185 490 -113 445 -113 856
0 1301 45 177 91 298 185 489 205 417 506 755 905 1018 466 306 1051 455 1605
407z"/>
<path d="M1458 4277 c-97 -41 -162 -109 -199 -205 -43 -116 -12 -270 74 -360
41 -44 109 -83 166 -98 l46 -11 0 -238 0 -238 -46 -11 c-97 -25 -177 -91 -226
-186 -25 -49 -28 -65 -28 -150 0 -81 4 -103 26 -150 33 -70 99 -136 169 -169
46 -22 69 -26 140 -26 47 0 101 4 120 8 l35 8 368 -368 367 -368 -11 -57 c-9
-44 -9 -72 1 -120 22 -117 83 -198 192 -255 47 -25 64 -28 148 -28 82 0 103 4
151 26 96 45 176 145 194 242 l7 37 258 0 258 0 7 -37 c18 -97 98 -197 194
-242 48 -22 69 -26 151 -26 89 0 99 2 158 34 122 66 185 172 185 311 0 142
-66 251 -191 312 -59 29 -76 33 -152 33 -71 0 -94 -4 -141 -26 -101 -48 -170
-130 -198 -236 l-12 -43 -259 0 c-222 0 -260 2 -260 15 0 8 -9 39 -21 70 -27
73 -104 156 -177 192 -50 24 -69 28 -147 28 -79 0 -97 -4 -148 -29 -32 -15
-79 -50 -105 -77 l-47 -48 -351 351 -352 350 40 40 c22 22 52 65 67 97 22 47
26 70 26 146 0 78 -4 97 -28 147 -48 97 -145 175 -240 193 l-37 7 2 241 3 240
46 11 c101 26 181 94 228 196 22 47 26 68 26 145 -1 77 -5 98 -28 146 -15 31
-50 77 -77 103 -71 66 -127 89 -230 93 -72 3 -94 0 -142 -20z m244 -74 c49
-20 131 -109 146 -160 56 -187 -69 -363 -258 -363 -176 1 -305 156 -270 326
36 171 215 263 382 197z m14 -1186 c95 -48 143 -130 144 -243 0 -56 -5 -81
-26 -122 -101 -204 -404 -198 -494 10 -63 144 9 319 153 372 62 23 159 15 223
-17z m1212 -1173 c56 -28 91 -63 125 -128 33 -62 31 -174 -5 -242 -89 -170
-322 -199 -448 -57 -120 137 -80 346 82 427 73 37 173 37 246 0z m1207 2 c61
-28 116 -87 140 -149 21 -57 17 -165 -9 -218 -80 -167 -309 -205 -441 -74 -54
54 -78 115 -78 195 1 77 19 125 71 182 52 58 121 88 202 88 47 0 79 -7 115
-24z"/>
<path d="M2690 4284 c-127 -46 -206 -141 -231 -277 -10 -56 -10 -76 4 -134 61
-247 330 -348 549 -206 15 9 29 15 31 13 2 -3 144 -158 317 -345 172 -187 322
-350 332 -361 19 -21 19 -23 -3 -85 -16 -50 -20 -80 -17 -139 10 -157 110
-275 268 -316 157 -40 327 43 398 194 23 49 27 70 27 147 0 77 -4 98 -27 147
-71 151 -240 234 -398 194 -41 -10 -87 -32 -124 -57 l-58 -41 -23 23 c-13 13
-163 176 -333 362 l-310 338 24 47 c88 172 23 381 -148 472 -55 30 -74 34
-148 37 -60 2 -98 -2 -130 -13z m237 -90 c179 -86 203 -339 44 -461 -50 -39
-97 -53 -177 -53 -226 0 -347 274 -197 449 83 97 211 122 330 65z m1218 -1175
c94 -47 145 -133 145 -244 0 -112 -49 -194 -143 -241 -141 -72 -304 -19 -373
121 -71 146 5 332 155 380 63 20 157 13 216 -16z"/>
<path d="M3915 4287 c-96 -32 -168 -96 -213 -187 -24 -48 -27 -67 -27 -150 0
-114 18 -163 91 -240 59 -63 135 -100 223 -107 148 -12 274 58 344 192 28 55
31 68 32 155 0 114 -18 162 -91 240 -67 72 -137 103 -238 107 -49 2 -97 -2
-121 -10z m220 -87 c48 -21 107 -79 131 -129 26 -53 30 -161 9 -218 -87 -227
-414 -230 -511 -6 -19 45 -22 154 -5 198 59 151 228 221 376 155z"/>
<path d="M2734 3120 c-105 -21 -203 -101 -251 -205 -39 -86 -39 -194 0 -280
148 -319 602 -261 667 84 33 177 -87 355 -269 397 -62 15 -87 16 -147 4z m191
-98 c88 -44 155 -152 155 -247 0 -155 -140 -284 -295 -272 -297 23 -349 428
-68 533 52 20 157 13 208 -14z"/>
<path d="M1504 1941 c-95 -23 -195 -107 -237 -199 -18 -38 -22 -66 -22 -142 0
-81 4 -103 26 -150 33 -70 99 -136 169 -169 47 -22 69 -26 150 -26 76 0 104 4
142 22 67 30 143 106 175 172 23 48 27 69 28 146 0 77 -4 98 -26 145 -31 66
-79 123 -130 155 -74 47 -189 66 -275 46z m196 -92 c180 -81 217 -320 70 -452
-57 -52 -102 -70 -180 -70 -112 0 -208 61 -253 162 -29 64 -28 163 2 225 27
54 106 128 153 143 57 19 158 15 208 -8z"/>
<path d="M7838 3911 c-79 -26 -148 -72 -216 -146 -98 -108 -178 -295 -306
-715 -91 -304 -94 -310 -135 -324 -45 -14 -51 -34 -12 -38 l30 -3 -35 -90
c-20 -49 -40 -94 -44 -99 -5 -4 -41 12 -82 37 -40 25 -86 51 -101 59 l-29 14
56 13 c31 7 58 15 60 19 2 4 -65 7 -148 7 -161 0 -178 -4 -189 -46 -7 -27 33
-69 65 -69 13 1 47 9 77 19 l53 19 87 -44 c47 -24 97 -52 110 -62 l24 -19 -33
-61 c-41 -78 -91 -136 -130 -152 -40 -16 -38 -30 3 -30 48 0 104 45 162 129
27 39 53 71 58 71 5 0 57 -35 116 -78 103 -77 208 -147 303 -203 50 -29 210
-93 293 -115 126 -35 313 -27 417 18 57 24 121 90 138 143 24 74 -6 254 -46
269 -18 7 -29 -17 -19 -41 33 -80 21 -138 -41 -192 -91 -80 -223 -112 -386
-92 -198 24 -356 89 -629 258 l-125 78 67 140 68 139 73 32 c325 137 590 369
709 619 50 105 69 181 69 280 0 98 -27 164 -89 216 -70 61 -142 72 -243 40z
m179 -51 c49 -30 69 -109 55 -215 -35 -258 -189 -494 -448 -688 -81 -61 -260
-164 -270 -155 -2 3 19 64 46 138 28 73 62 173 76 223 35 124 120 360 157 432
70 139 153 241 222 271 46 20 125 17 162 -6z"/>
<path d="M10301 3903 c-148 -73 -311 -289 -487 -645 -56 -114 -60 -118 -90
-118 -36 0 -46 -14 -31 -47 8 -19 2 -33 -49 -95 -32 -40 -93 -112 -136 -159
-110 -122 -351 -329 -365 -315 -3 3 45 111 107 240 65 137 110 242 106 251 -7
20 -66 45 -104 45 -23 0 -45 -19 -125 -109 -165 -188 -390 -373 -487 -402 -35
-11 -42 -10 -60 6 -29 26 -26 87 9 160 101 213 373 420 568 433 71 4 133 -9
133 -29 0 -5 7 -9 15 -9 45 0 -31 82 -94 101 -141 42 -410 -85 -606 -287 -49
-51 -133 -137 -185 -191 -103 -106 -210 -190 -257 -199 -20 -4 -36 0 -53 14
-21 17 -25 29 -24 74 1 72 23 134 115 327 44 90 79 174 79 186 0 32 -23 47
-67 43 -34 -3 -41 -8 -65 -53 -15 -27 -30 -64 -34 -81 -3 -18 -50 -91 -104
-163 -58 -78 -97 -138 -93 -147 8 -22 18 -17 58 32 20 25 39 43 41 41 2 -2 -7
-36 -21 -75 -60 -170 -11 -273 123 -259 80 8 152 49 246 138 46 43 86 79 88
79 2 0 5 -15 6 -32 3 -46 49 -107 102 -136 122 -65 262 19 500 298 57 66 105
118 107 116 7 -6 -79 -218 -153 -379 l-69 -149 -130 -90 c-298 -208 -441 -342
-501 -473 -61 -130 1 -224 147 -225 80 0 160 42 241 128 88 93 128 158 264
426 l118 231 76 57 c117 88 316 274 430 402 57 64 105 115 107 113 2 -2 -37
-116 -87 -253 -49 -137 -90 -252 -90 -256 0 -14 28 -9 82 15 45 20 65 39 137
133 183 236 223 283 293 350 75 71 131 106 155 97 19 -8 17 -15 -36 -121 -72
-145 -103 -236 -104 -312 -2 -115 48 -167 149 -157 97 10 156 48 307 199 75
76 137 137 137 136 0 -2 -11 -34 -25 -73 -60 -171 -11 -276 123 -262 86 9 155
51 274 166 60 57 108 101 108 98 0 -3 -21 -64 -46 -136 -26 -73 -44 -134 -40
-138 3 -3 33 5 66 18 57 22 67 32 142 129 238 307 292 368 374 420 51 32 84
39 84 16 0 -7 -22 -60 -49 -117 -65 -137 -91 -218 -98 -298 -4 -58 -2 -70 19
-101 43 -64 147 -76 240 -29 85 43 214 161 327 299 18 22 17 15 -10 -68 -16
-50 -29 -109 -29 -131 0 -44 33 -99 70 -118 92 -47 259 38 412 207 65 72 65
75 0 -108 -48 -132 -44 -141 46 -96 51 26 70 45 180 189 158 205 231 287 305
341 54 40 107 57 107 35 0 -4 -24 -59 -54 -122 -91 -192 -119 -326 -81 -398
32 -63 152 -75 250 -26 73 38 238 192 318 300 35 46 57 70 53 55 -3 -14 -11
-70 -18 -125 -13 -119 0 -169 48 -181 36 -9 54 16 54 73 0 151 304 461 479
489 73 12 93 -35 61 -138 -39 -128 -120 -232 -263 -339 -152 -114 -276 -168
-385 -170 -32 0 -66 -4 -77 -8 -17 -7 -14 -10 20 -20 107 -30 273 0 411 73
237 126 418 326 431 477 l6 60 -51 49 c-67 64 -110 77 -195 55 -34 -9 -86 -30
-115 -48 -67 -40 -204 -166 -262 -241 -23 -31 -45 -55 -47 -52 -6 5 14 76 39
144 18 47 30 60 121 129 215 163 446 383 528 504 73 108 99 216 63 267 -43 62
-174 83 -258 42 -132 -64 -260 -254 -426 -635 -28 -66 -61 -144 -72 -173 -27
-73 -211 -316 -300 -395 -127 -114 -205 -167 -246 -167 -29 0 -54 35 -59 83
-8 66 20 156 98 317 78 161 96 233 64 256 -29 21 -60 17 -128 -17 -48 -25 -99
-68 -228 -198 -91 -91 -187 -191 -213 -221 -58 -67 -59 -68 45 194 57 147 75
203 68 213 -16 18 -73 27 -97 14 -21 -11 -21 -12 -78 -186 l-39 -120 -125
-126 c-127 -128 -234 -209 -277 -209 -41 0 -63 33 -63 96 0 65 39 171 130 354
32 63 61 125 65 138 10 35 -19 62 -67 62 -38 0 -39 -1 -73 -72 -19 -40 -35
-79 -35 -87 0 -27 -170 -239 -260 -324 -158 -148 -237 -190 -279 -148 -17 17
-21 33 -21 79 0 79 20 142 100 312 80 169 88 201 66 235 -23 34 -59 32 -136
-7 -67 -35 -242 -198 -409 -383 l-81 -90 26 70 c14 39 53 139 86 222 33 84 58
159 55 167 -3 8 -24 17 -47 21 -55 9 -73 -8 -100 -98 -59 -194 -74 -221 -189
-336 -234 -236 -347 -271 -345 -107 1 48 10 82 43 161 58 136 162 335 176 335
45 0 255 34 283 46 64 26 26 35 -99 24 -178 -15 -167 -25 -102 88 31 53 73
116 94 139 29 32 39 51 39 76 0 44 -15 57 -65 57 -55 0 -67 -13 -167 -200
l-84 -155 -46 -6 c-67 -10 -90 -25 -86 -57 3 -23 8 -27 41 -30 20 -2 37 -5 37
-8 0 -20 -65 -123 -140 -223 -92 -123 -189 -220 -296 -297 -76 -54 -111 -63
-144 -36 -22 18 -25 27 -24 89 2 90 30 171 111 318 69 125 85 183 63 225 -10
19 -18 22 -56 17 -85 -9 -231 -127 -433 -350 -68 -76 -126 -135 -129 -132 -5
5 18 73 80 232 l39 103 142 113 c407 327 557 493 574 636 10 85 -41 131 -145
131 -43 0 -72 -7 -111 -27z m184 -39 c50 -50 -70 -239 -288 -451 -116 -113
-284 -249 -294 -239 -6 5 75 165 136 268 104 177 277 369 374 417 51 25 51 25
72 5z m4018 -34 c28 -79 -88 -258 -302 -467 -83 -81 -211 -188 -273 -227 l-29
-19 16 39 c35 85 150 294 213 389 75 112 195 244 262 287 56 36 100 35 113 -2z
m-5674 -1652 c-181 -361 -375 -565 -454 -478 -14 15 -16 29 -12 65 10 68 42
122 126 209 72 75 375 326 393 326 4 0 -19 -55 -53 -122z"/>
<path d="M16070 3908 c-70 -34 -196 -168 -287 -305 -96 -145 -243 -432 -319
-620 -58 -146 -93 -196 -190 -279 -86 -74 -149 -87 -181 -38 -14 22 -13 27 15
71 59 92 82 154 82 221 0 49 -4 66 -20 82 -25 25 -45 25 -69 1 -17 -17 -18
-26 -10 -53 5 -18 9 -45 9 -60 0 -41 -39 -138 -56 -138 -8 0 -23 -9 -34 -20
-16 -16 -19 -28 -14 -54 5 -31 1 -39 -59 -100 -118 -121 -234 -142 -273 -51
-45 109 26 294 176 458 73 80 135 119 185 115 35 -3 40 -7 49 -36 12 -42 30
-36 34 11 4 50 -11 73 -62 92 -187 72 -495 -252 -496 -520 0 -108 33 -167 113
-200 92 -38 204 -5 306 91 l68 64 23 -25 c57 -61 145 -38 253 66 40 38 72 69
73 69 1 0 -3 -21 -7 -47 -11 -59 -3 -121 22 -161 27 -46 73 -66 149 -67 97 0
147 32 311 195 l136 136 -23 -68 c-33 -99 -39 -148 -20 -191 35 -85 137 -99
258 -36 44 23 98 68 177 146 62 62 114 113 115 113 0 0 1 -35 2 -78 1 -113 31
-162 129 -208 58 -28 111 -30 208 -9 223 47 516 315 641 586 67 145 81 209 81
364 0 122 -3 146 -21 186 -104 225 -455 252 -685 52 -116 -101 -179 -205 -201
-330 -23 -139 27 -242 145 -294 42 -19 70 -23 142 -23 78 -1 98 3 150 27 62
29 125 81 125 104 0 21 -16 15 -85 -32 -72 -49 -111 -60 -186 -53 -93 9 -166
84 -176 181 -12 112 60 298 152 393 73 74 129 99 225 99 89 0 139 -16 186 -58
59 -51 77 -98 82 -213 8 -200 -77 -445 -225 -642 -108 -145 -238 -254 -337
-282 -73 -20 -175 -10 -225 23 -53 35 -74 81 -76 167 -2 50 -6 66 -18 68 -14
3 -14 7 3 35 23 38 25 47 7 47 -8 0 -37 -29 -65 -64 -74 -90 -236 -232 -309
-270 -45 -23 -68 -20 -92 10 -25 32 -27 81 -5 155 18 59 120 283 167 365 l30
51 131 18 c139 18 207 38 189 56 -7 7 -52 6 -142 -1 -73 -7 -134 -10 -136 -8
-7 7 110 196 146 235 45 49 54 104 20 123 -27 14 -84 13 -104 -2 -9 -7 -56
-87 -106 -178 -49 -91 -96 -166 -103 -167 -67 -9 -92 -17 -109 -34 -29 -29
-10 -59 36 -59 19 0 35 -2 35 -5 0 -21 -63 -120 -147 -230 -106 -139 -243
-270 -333 -319 -64 -35 -114 -33 -144 7 -28 39 -33 135 -9 208 17 53 28 65
158 181 228 203 409 403 544 603 111 163 138 230 120 298 -14 54 -56 77 -139
77 -46 0 -78 -6 -110 -22z m180 -63 c12 -30 0 -66 -53 -160 -135 -239 -413
-580 -577 -710 -63 -49 -63 -49 -56 -19 10 43 167 361 227 462 187 312 420
530 459 427z"/>
<path d="M18415 3820 c-220 -35 -395 -182 -420 -353 -15 -108 30 -190 135
-246 l62 -33 -64 -35 c-293 -163 -453 -340 -453 -503 0 -80 23 -117 93 -152
42 -21 60 -23 177 -22 114 0 141 4 215 28 211 69 381 198 456 346 37 73 40
183 7 246 -26 48 -86 105 -143 134 -22 11 -40 22 -40 24 0 1 41 27 91 57 50
29 119 79 153 110 170 156 164 338 -13 389 -53 15 -187 20 -256 10z m144 -61
c68 -14 112 -45 139 -99 28 -56 28 -82 -2 -146 -17 -37 -40 -64 -82 -96 -77
-59 -213 -138 -238 -138 -38 0 -200 86 -233 124 -29 32 -33 44 -33 92 0 68 17
111 64 158 91 90 250 134 385 105z m-217 -617 c140 -57 198 -122 198 -223 0
-108 -93 -224 -239 -297 -103 -52 -169 -65 -300 -60 -175 6 -247 57 -237 166
9 96 76 177 248 299 100 70 227 143 248 142 8 0 45 -12 82 -27z"/>
<path d="M19594 3762 c-109 -39 -236 -124 -354 -238 -240 -233 -359 -515 -329
-780 19 -175 136 -278 329 -291 147 -10 282 42 404 157 122 114 178 231 179
370 1 115 -43 184 -148 232 -40 18 -68 22 -141 23 -87 0 -95 -2 -170 -40 -49
-25 -84 -50 -93 -67 -23 -41 -6 -45 44 -9 144 104 287 94 360 -24 27 -43 29
-55 28 -124 -2 -96 -31 -189 -82 -269 -101 -155 -221 -214 -373 -183 -77 16
-130 57 -163 125 -26 54 -27 60 -23 184 6 149 33 253 103 399 96 201 252 379
400 456 53 28 69 32 145 32 67 0 93 -4 125 -21 55 -29 86 -92 88 -176 2 -56 4
-63 22 -63 44 0 39 167 -8 236 -31 46 -63 66 -132 84 -83 21 -118 19 -211 -13z"/>
<path d="M8294 3439 c-49 -39 -90 -77 -92 -84 -5 -19 38 -45 73 -45 46 0 91
57 109 135 4 17 9 38 12 48 9 30 -11 19 -102 -54z"/>
<path d="M12429 3440 c-48 -37 -89 -73 -93 -78 -12 -19 21 -44 66 -49 45 -5
47 -4 73 35 37 56 68 163 48 162 -5 0 -47 -32 -94 -70z"/>
</g>
</svg>
